<?xml version="1.0" standalone="no"?>
<!DOCTYPE svg PUBLIC "-//W3C//DTD SVG 20010904//EN"
 "http://www.w3.org/TR/2001/REC-SVG-20010904/DTD/svg10.dtd">
<svg version="1.0" xmlns="http://www.w3.org/2000/svg"
 width="260.000000pt" height="260.000000pt" viewBox="0 0 260.000000 260.000000"
 preserveAspectRatio="xMidYMid meet">
<metadata>
Created by potrace 1.11, written by Peter Selinger 2001-2013
</metadata>
<g transform="translate(0.000000,260.000000) scale(0.100000,-0.100000)"
fill="#000000" stroke="none">
<path d="M60 2036 c0 -9 18 -15 51 -19 68 -8 110 -34 134 -82 19 -39 20 -60
20 -640 0 -585 -1 -601 -20 -635 -26 -44 -77 -70 -137 -70 -36 0 -48 -4 -48
-15 0 -13 35 -15 255 -15 210 0 255 2 255 14 0 10 -18 15 -60 18 -39 3 -70 11
-88 25 -58 43 -57 29 -60 633 -2 342 0 551 6 545 5 -5 135 -286 288 -622 234
-514 282 -613 299 -613 17 1 59 86 255 518 129 284 249 546 267 582 l32 65 -2
-515 c-2 -561 -1 -550 -60 -594 -19 -14 -47 -21 -92 -24 -47 -3 -65 -8 -65
-18 0 -12 92 -14 578 -14 l577 1 59 187 c33 103 60 191 60 196 1 6 -6 11 -14
13 -10 2 -27 -22 -54 -77 -70 -146 -147 -209 -283 -230 -92 -14 -418 -9 -434
7 -24 24 -31 200 -27 718 3 506 4 532 23 570 24 48 57 65 136 72 40 4 59 10
59 19 0 11 -40 14 -213 14 l-212 0 -264 -581 -264 -581 -17 33 c-10 19 -131
280 -270 582 l-252 547 -209 0 c-170 0 -209 -3 -209 -14z"/>
</g>
</svg>
