<svg xmlns="http://www.w3.org/2000/svg" version="1.1" x="0" y="0" width="205" height="13" viewBox="0 0 205 13" enable-background="new 0 0 205 13" xml:space="preserve"><path fill="#FFFFFF" d="M5.8 10.1V5.2c0-0.2 0-0.4 0-0.5S5.7 4.4 5.7 4.3 5.6 4.2 5.6 4.1s-0.2 0-0.2 0c-0.1 0-0.2 0-0.3 0.1S4.9 4.3 4.9 4.5 4.7 4.7 4.6 4.9 4.3 5.4 4.2 5.7v4.4H3.1V5.3c0-0.2 0-0.5 0-0.6S3 4.4 3 4.3 2.9 4.2 2.9 4.2L2.7 4.1c-0.1 0-0.2 0-0.2 0.1S2.3 4.3 2.2 4.4 2 4.7 1.9 4.9 1.7 5.4 1.5 5.7v4.4H0.4V3.2h0.9l0.1 1.3C1.5 4.2 1.6 4 1.7 3.8S1.9 3.5 2 3.4s0.2-0.2 0.4-0.2 0.3-0.1 0.4-0.1c0.4 0 0.6 0.1 0.8 0.4s0.3 0.6 0.3 1.1C4 4.4 4.1 4.2 4.2 4s0.4-0.4 0.5-0.5S5 3.3 5.1 3.2s0.3-0.1 0.5-0.1c0.9 0 1.3 0.7 1.3 2v5H5.8zM13 10.1V9.2c-0.4 0.4-0.8 0.6-1.1 0.8s-0.8 0.2-1.2 0.2 -0.7-0.1-1-0.1C9.3 10 9.1 9.8 8.9 9.7 8.7 9.5 8.6 9.3 8.5 9.1 8.4 8.8 8.4 8.6 8.4 8.3c0-0.7 0.3-1.2 0.8-1.6s1.3-0.6 2.3-0.6h1.4V5.5c0-0.4-0.1-0.7-0.4-1s-0.7-0.4-1.2-0.4c-0.4 0-0.8 0-1.1 0.1S9.4 4.5 9 4.6v-1c0.2-0.1 0.3-0.1 0.5-0.2s0.4-0.1 0.6-0.1 0.4-0.1 0.6-0.1 0.4 0 0.7 0c0.4 0 0.8 0 1.1 0.1s0.6 0.2 0.8 0.4 0.4 0.4 0.5 0.7S14 5 14 5.4v4.7H13zM12.9 7h-1.5c-0.3 0-0.6 0-0.8 0.1s-0.4 0.1-0.5 0.3S9.9 7.6 9.8 7.8C9.7 7.9 9.7 8 9.7 8.2c0 0.1 0 0.3 0.1 0.4 0 0.1 0.1 0.2 0.2 0.3 0.1 0.1 0.2 0.2 0.4 0.2s0.3 0.1 0.5 0.1c0.3 0 0.6-0.1 0.9-0.2 0.4-0.2 0.7-0.4 1.1-0.8V7zM21.8 10c-0.3 0.1-0.5 0.1-0.8 0.1s-0.6 0-0.9 0c-0.9 0-1.5-0.2-1.9-0.6s-0.6-1-0.6-1.8V4.2h-1.9v-1h1.9V1.4l1.2-0.3v2.2h3.1v1h-3.1v3.5c0 0.5 0.1 0.9 0.4 1.1 0.3 0.2 0.6 0.4 1.2 0.4 0.2 0 0.5 0 0.7-0.1s0.5-0.1 0.8-0.2v1H21.8zM29.5 10c-0.3 0.1-0.5 0.1-0.8 0.1s-0.6 0-0.9 0c-0.9 0-1.5-0.2-1.9-0.6s-0.6-1-0.6-1.8V4.2h-1.9v-1h1.9V1.4l1.2-0.3v2.2h3.1v1h-3.1v3.5c0 0.5 0.1 0.9 0.4 1.1 0.3 0.2 0.6 0.4 1.2 0.4 0.2 0 0.5 0 0.7-0.1s0.5-0.1 0.8-0.2v1H29.5zM34 4.2h-2v-1h3.2v5.9h2v1h-5.5v-1H34V4.2zM34.4 0.4c0.1 0 0.3 0 0.4 0.1s0.2 0.1 0.3 0.2 0.2 0.2 0.2 0.3 0.1 0.2 0.1 0.4c0 0.1 0 0.2-0.1 0.4S35.2 2 35.1 2.1s-0.2 0.2-0.3 0.2 -0.2 0.1-0.4 0.1 -0.3 0-0.4-0.1 -0.2-0.1-0.3-0.2 -0.1-0.2-0.2-0.3 0-0.4 0-0.5 0-0.3 0.1-0.4 0.1-0.2 0.2-0.3 0.2-0.2 0.3-0.2S34.3 0.4 34.4 0.4zM43.8 10.1V9.2C43.4 9.6 43 9.8 42.7 10s-0.8 0.2-1.2 0.2 -0.7-0.1-1-0.1C40.2 10 40 9.9 39.8 9.7s-0.3-0.4-0.4-0.6c-0.1-0.2-0.1-0.5-0.1-0.8 0-0.7 0.3-1.2 0.8-1.6s1.3-0.6 2.3-0.6h1.4V5.5c0-0.4-0.1-0.7-0.4-1s-0.8-0.4-1.3-0.4c-0.4 0-0.8 0-1.1 0.1s-0.8 0.2-1.2 0.4v-1c0.2-0.1 0.3-0.1 0.5-0.2s0.4-0.1 0.6-0.1 0.4-0.1 0.6-0.1 0.4 0 0.7 0c0.4 0 0.8 0 1.1 0.1s0.6 0.2 0.8 0.4 0.4 0.4 0.5 0.7 0.2 0.6 0.2 1v4.7H43.8zM43.7 7h-1.5c-0.3 0-0.6 0-0.8 0.1S41 7.2 40.9 7.4s-0.2 0.2-0.3 0.4c-0.1 0.2-0.1 0.3-0.1 0.5 0 0.1 0 0.3 0.1 0.4 0 0.1 0.1 0.2 0.2 0.3 0.1 0.1 0.2 0.2 0.4 0.2s0.3 0.1 0.5 0.1c0.3 0 0.6-0.1 0.9-0.2 0.4-0.2 0.7-0.4 1.1-0.8C43.7 8.3 43.7 7 43.7 7zM52.5 8.2c0 0.2 0 0.5-0.1 0.6s-0.2 0.4-0.3 0.5 -0.3 0.3-0.5 0.4C51.4 9.8 51.2 9.9 51 10s-0.4 0.1-0.7 0.2c-0.2 0-0.4 0-0.7 0 -0.5 0-0.9 0-1.3-0.1s-0.8-0.1-1.1-0.2v-1C47.6 9 48 9.1 48.4 9.2s0.8 0.1 1.2 0.1c0.6 0 1-0.1 1.3-0.2 0.3-0.2 0.4-0.4 0.4-0.7 0-0.1 0-0.2-0.1-0.3 0-0.1-0.1-0.2-0.2-0.3s-0.3-0.2-0.5-0.3 -0.6-0.2-1-0.3c-0.3-0.1-0.6-0.2-0.9-0.3s-0.5-0.3-0.7-0.4 -0.3-0.3-0.5-0.6 -0.2-0.5-0.2-0.8c0-0.2 0-0.4 0.1-0.6s0.2-0.4 0.5-0.6 0.5-0.4 0.9-0.5 0.8-0.2 1.4-0.2c0.3 0 0.6 0 0.9 0s0.7 0.1 1 0.2v1.1c-0.4-0.1-0.7-0.2-1.1-0.2S50.3 4.2 50 4.2c-0.3 0-0.5 0-0.7 0.1s-0.4 0.1-0.5 0.2 -0.2 0.2-0.3 0.3S48.4 5 48.4 5.1s0 0.2 0.1 0.3 0.1 0.2 0.3 0.3 0.3 0.2 0.5 0.3 0.5 0.2 0.9 0.3c0.4 0.1 0.7 0.2 1 0.4s0.5 0.3 0.7 0.4c0.2 0.2 0.3 0.3 0.4 0.5C52.5 7.7 52.5 8 52.5 8.2zM57.5 8c0.2 0 0.3 0 0.4 0.1 0.1 0.1 0.3 0.1 0.4 0.2 0.1 0.1 0.2 0.2 0.2 0.4 0.1 0.1 0.1 0.3 0.1 0.4 0 0.2 0 0.3-0.1 0.4s-0.1 0.3-0.2 0.4 -0.2 0.2-0.4 0.2c-0.1 0.1-0.3 0.1-0.4 0.1 -0.2 0-0.3 0-0.4-0.1C57 10 56.8 10 56.7 9.9s-0.2-0.2-0.2-0.4 -0.2-0.2-0.2-0.4 0-0.3 0.1-0.4c0.1-0.1 0.1-0.3 0.2-0.4 0.1-0.1 0.2-0.2 0.4-0.2C57.2 8 57.3 8 57.5 8zM64.8 1.4h-2v-1H66v8.7h2v1h-5.5v-1h2.3V1.4zM75.7 10.1h-1.1V9c-0.2 0.2-0.4 0.4-0.6 0.6s-0.4 0.3-0.5 0.4 -0.4 0.2-0.5 0.2c-0.2 0-0.4 0.1-0.6 0.1 -0.7 0-1.2-0.2-1.6-0.6 -0.4-0.4-0.5-1-0.5-1.9V3.2h1.2v4.4c0 1.1 0.4 1.6 1.2 1.6 0.1 0 0.3 0 0.4-0.1 0.1 0 0.3-0.1 0.4-0.2 0.2-0.1 0.3-0.3 0.5-0.4 0.2-0.2 0.4-0.4 0.6-0.7V3.2h1.2v6.9H75.7zM77.9 3.2H79v1.1c0.2-0.2 0.4-0.4 0.6-0.6s0.4-0.3 0.6-0.4 0.4-0.2 0.6-0.2S81.2 3 81.4 3c0.7 0 1.2 0.2 1.6 0.6s0.5 1 0.5 1.9V10h-1.2V5.7c0-0.5-0.1-0.9-0.3-1.2s-0.5-0.4-0.9-0.4c-0.1 0-0.3 0-0.4 0.1s-0.3 0.1-0.4 0.2S80 4.7 79.8 4.8s-0.4 0.4-0.6 0.7v4.6H78V3.2H77.9zM85.2 6.8c0-0.6 0.1-1.1 0.2-1.6s0.4-0.8 0.7-1.1 0.6-0.5 1.1-0.7 0.9-0.2 1.4-0.2c0.2 0 0.4 0 0.6 0s0.4 0.1 0.6 0.1V0.4H91v9.7h-1.1V8.8c-0.3 0.5-0.7 0.8-1.1 1.1s-0.8 0.3-1.3 0.3c-0.4 0-0.7-0.1-1-0.2S86 9.6 85.8 9.3s-0.3-0.7-0.4-1.1C85.3 7.8 85.2 7.3 85.2 6.8zM86.4 6.7c0 0.8 0.1 1.4 0.4 1.9 0.2 0.4 0.6 0.6 1 0.6 0.3 0 0.6-0.1 1-0.4 0.3-0.3 0.7-0.7 1.1-1.2V4.4c-0.2-0.1-0.4-0.2-0.6-0.2s-0.5-0.1-0.7-0.1c-0.6 0-1.2 0.2-1.5 0.6S86.4 5.8 86.4 6.7zM99.1 6.3c0 0.2 0 0.3 0 0.4s0 0.2 0 0.3h-4.8c0 0.7 0.2 1.2 0.6 1.6s1 0.6 1.7 0.6c0.2 0 0.4 0 0.6 0s0.4 0 0.6-0.1S98.2 9 98.3 9s0.3-0.1 0.5-0.1v1c-0.3 0.1-0.7 0.2-1.1 0.2 -0.4 0.1-0.8 0.1-1.3 0.1 -0.6 0-1.1-0.1-1.5-0.2 -0.4-0.2-0.8-0.4-1-0.7 -0.3-0.3-0.5-0.7-0.6-1.1 -0.1-0.4-0.2-0.9-0.2-1.5 0-0.5 0.1-0.9 0.2-1.4s0.3-0.8 0.6-1.1 0.6-0.6 1-0.8 0.8-0.3 1.3-0.3 0.9 0.1 1.3 0.2 0.7 0.4 0.9 0.6c0.2 0.2 0.4 0.6 0.6 1S99.1 5.8 99.1 6.3zM97.8 6.1c0-0.3 0-0.6-0.1-0.8s-0.2-0.5-0.3-0.7 -0.3-0.3-0.6-0.4S96.3 4 96 4s-0.5 0.1-0.7 0.2 -0.4 0.2-0.6 0.4S94.4 5 94.3 5.3s-0.2 0.5-0.2 0.8H97.8zM101.2 3.2h1.1v1.3c0.4-0.5 0.8-0.8 1.2-1.1 0.4-0.2 0.8-0.3 1.2-0.3 0.7 0 1.3 0.2 1.6 0.7s0.5 1.1 0.5 2.1h-1.2c0-0.6-0.1-1-0.3-1.3s-0.5-0.4-0.8-0.4c-0.2 0-0.3 0-0.5 0.1s-0.3 0.1-0.5 0.3c-0.2 0.1-0.4 0.3-0.5 0.5 -0.2 0.2-0.4 0.4-0.6 0.7v4.4h-1.2C101.2 10.2 101.2 3.2 101.2 3.2zM114.6 6.6c0 0.5-0.1 1-0.2 1.5s-0.4 0.8-0.6 1.1c-0.3 0.3-0.6 0.6-1 0.7 -0.4 0.2-0.9 0.3-1.4 0.3s-0.9-0.1-1.3-0.2c-0.4-0.2-0.7-0.4-1-0.7s-0.5-0.7-0.6-1.1c-0.1-0.4-0.2-0.9-0.2-1.5 0-0.5 0.1-1 0.2-1.5s0.4-0.8 0.6-1.1 0.6-0.6 1-0.7 0.9-0.3 1.4-0.3 0.9 0.1 1.3 0.2c0.4 0.2 0.7 0.4 1 0.7s0.5 0.7 0.6 1.1C114.6 5.6 114.6 6.1 114.6 6.6zM113.4 6.7c0-0.4 0-0.8-0.1-1.1 -0.1-0.3-0.2-0.6-0.4-0.8s-0.4-0.4-0.6-0.5 -0.5-0.2-0.8-0.2c-0.4 0-0.7 0.1-0.9 0.2 -0.3 0.1-0.5 0.3-0.6 0.6 -0.2 0.2-0.3 0.5-0.4 0.8s-0.1 0.6-0.1 1 0 0.8 0.1 1.1 0.2 0.6 0.4 0.8 0.4 0.4 0.6 0.5 0.5 0.2 0.8 0.2c0.4 0 0.7-0.1 0.9-0.2 0.3-0.1 0.5-0.3 0.6-0.6 0.2-0.2 0.3-0.5 0.4-0.8C113.4 7.3 113.4 7 113.4 6.7zM121.9 10c-0.3 0.1-0.5 0.1-0.8 0.1s-0.6 0-0.9 0c-0.9 0-1.5-0.2-1.9-0.6s-0.6-1-0.6-1.8V4.2h-1.9v-1h1.9V1.4l1.2-0.3v2.2h3.1v1h-3.1v3.5c0 0.5 0.1 0.9 0.4 1.1 0.3 0.2 0.6 0.4 1.2 0.4 0.2 0 0.5 0 0.7-0.1s0.5-0.1 0.8-0.2v1H121.9zM128.3 7.3c0 0.3-0.1 0.5-0.1 0.7s0 0.3 0 0.5c0 0.1 0.1 0.2 0.1 0.2 0.1 0 0.1 0.1 0.2 0.1 0.1 0 0.2-0.1 0.4-0.2 0.1-0.1 0.2-0.3 0.3-0.6s0.2-0.6 0.2-1.1c0.1-0.4 0.1-0.9 0.1-1.5 0-0.7 0-1.2-0.1-1.8s-0.2-1-0.4-1.3 -0.4-0.6-0.7-0.8 -0.6-0.3-1-0.3c-0.3 0-0.6 0.1-0.9 0.2 -0.3 0.2-0.6 0.4-0.8 0.7 -0.2 0.3-0.5 0.6-0.7 1s-0.4 0.8-0.5 1.3 -0.3 1-0.3 1.6C124 6.6 124 7.1 124 7.7c0 1.5 0.2 2.6 0.7 3.3 0.4 0.7 1.1 1.1 1.9 1.1 0.4 0 0.8 0 1.1-0.1s0.7-0.2 1.1-0.4v0.9c-0.4 0.2-0.7 0.3-1.1 0.4 -0.4 0.1-0.8 0.1-1.2 0.1 -1.2 0-2-0.4-2.6-1.3 -0.6-0.9-0.8-2.2-0.9-3.9 0-0.7 0-1.3 0.1-2s0.2-1.2 0.4-1.8c0.2-0.5 0.4-1 0.7-1.5 0.3-0.4 0.5-0.8 0.9-1.1 0.3-0.3 0.7-0.6 1.1-0.7s0.8-0.3 1.2-0.3c0.5 0 1 0.1 1.4 0.3 0.4 0.2 0.7 0.5 1 1s0.5 0.9 0.6 1.5 0.2 1.3 0.2 2.1 -0.1 1.5-0.2 2c-0.1 0.6-0.2 1-0.4 1.4s-0.4 0.6-0.6 0.8c-0.3 0.2-0.5 0.3-0.8 0.3 -0.4 0-0.6-0.1-0.8-0.3s-0.3-0.4-0.3-0.7c-0.2 0.4-0.4 0.6-0.6 0.8s-0.4 0.2-0.7 0.2c-0.4 0-0.7-0.2-1-0.5s-0.3-0.8-0.3-1.5c0-0.3 0-0.5 0-0.8s0.1-0.6 0.2-0.9 0.2-0.6 0.3-0.8 0.3-0.5 0.4-0.7c0.2-0.2 0.4-0.4 0.6-0.5s0.5-0.2 0.8-0.2c0.2 0 0.3 0 0.5 0.1 0.2 0.1 0.3 0.1 0.3 0.1l0.9-0.2L128.3 7.3zM127.6 4.9c0-0.1-0.1-0.1-0.2-0.1s-0.2-0.1-0.3-0.1c-0.1 0-0.3 0-0.4 0.1s-0.2 0.2-0.3 0.4c-0.1 0.2-0.2 0.3-0.2 0.5 -0.1 0.2-0.1 0.4-0.1 0.6S126 6.7 126 6.9s0 0.4 0 0.6c0 0.4 0 0.8 0.1 0.9s0.2 0.3 0.3 0.3c0.1 0 0.1 0 0.2 0s0.1-0.1 0.2-0.1c0.1-0.1 0.1-0.2 0.2-0.3s0.2-0.3 0.2-0.5L127.6 4.9zM136.7 4.2c0.1 0.2 0.2 0.3 0.3 0.6 0.1 0.2 0.1 0.4 0.1 0.7 0 0.4-0.1 0.7-0.2 1 -0.1 0.3-0.3 0.5-0.5 0.8 -0.2 0.2-0.5 0.4-0.9 0.5 -0.3 0.1-0.7 0.2-1.1 0.2 -0.3 0-0.6 0-0.8-0.1s-0.4-0.1-0.6-0.2c-0.1 0.1-0.2 0.2-0.2 0.4 -0.1 0.1-0.1 0.2-0.1 0.4s0.1 0.3 0.2 0.4c0.2 0.1 0.4 0.2 0.7 0.2l1.8 0.1c0.3 0 0.7 0.1 0.9 0.1 0.3 0.1 0.5 0.2 0.7 0.3s0.4 0.3 0.5 0.5 0.2 0.5 0.2 0.7c0 0.3-0.1 0.6-0.2 0.9 -0.1 0.3-0.3 0.5-0.6 0.7s-0.6 0.4-1 0.5 -0.9 0.2-1.5 0.2 -1 0-1.4-0.1 -0.7-0.2-1-0.4 -0.4-0.3-0.5-0.6 -0.2-0.5-0.2-0.7c0-0.3 0.1-0.6 0.2-0.9 0.2-0.3 0.4-0.5 0.7-0.7 -0.1-0.1-0.2-0.1-0.3-0.2s-0.2-0.2-0.2-0.3c-0.1-0.1-0.1-0.2-0.1-0.3s0-0.2 0-0.3c0-0.3 0.1-0.6 0.2-0.8 0.1-0.2 0.3-0.5 0.5-0.7 -0.1-0.1-0.2-0.2-0.2-0.3 -0.1-0.1-0.1-0.2-0.2-0.3 0-0.1-0.1-0.2-0.1-0.4 0-0.1 0-0.3 0-0.5 0-0.4 0.1-0.7 0.2-1 0.1-0.3 0.3-0.5 0.5-0.8 0.2-0.2 0.5-0.4 0.8-0.5s0.7-0.2 1.1-0.2c0.2 0 0.3 0 0.5 0s0.3 0.1 0.4 0.1h2.5v1C137.8 4.2 136.7 4.2 136.7 4.2zM132.6 11.1c0 0.3 0.2 0.6 0.5 0.7s0.8 0.2 1.4 0.2c0.4 0 0.7 0 1-0.1s0.5-0.2 0.6-0.3c0.2-0.1 0.3-0.2 0.3-0.4s0.1-0.3 0.1-0.4c0-0.3-0.1-0.5-0.3-0.6s-0.6-0.2-1-0.2l-1.8-0.1c-0.1 0.1-0.3 0.2-0.4 0.3 -0.1 0.1-0.2 0.2-0.2 0.3 -0.1 0.1-0.1 0.2-0.1 0.3C132.6 10.9 132.6 11 132.6 11.1zM132.9 5.5c0 0.2 0 0.4 0.1 0.6s0.2 0.3 0.3 0.5 0.3 0.2 0.5 0.3C134 7 134.2 7 134.4 7c0.2 0 0.4 0 0.6-0.1 0.2-0.1 0.3-0.2 0.5-0.3 0.1-0.1 0.2-0.3 0.3-0.5s0.1-0.4 0.1-0.6 0-0.4-0.1-0.6 -0.2-0.3-0.3-0.5 -0.3-0.2-0.5-0.3C134.8 4 134.6 4 134.4 4c-0.2 0-0.4 0-0.6 0.1 -0.2 0.1-0.3 0.2-0.5 0.3 -0.1 0.1-0.2 0.3-0.3 0.5S132.9 5.3 132.9 5.5zM144.3 10.1V5.2c0-0.2 0-0.4 0-0.5s0-0.2-0.1-0.3c0-0.1-0.1-0.1-0.1-0.2 -0.1 0-0.1 0-0.2 0 -0.1 0-0.2 0-0.3 0.1s-0.2 0.1-0.2 0.3c-0.1 0.1-0.2 0.3-0.3 0.5s-0.2 0.5-0.4 0.7v4.4h-1.1V5.3c0-0.2 0-0.5 0-0.6 0-0.2 0-0.3-0.1-0.4 0-0.1-0.1-0.1-0.1-0.2s-0.1 0-0.2 0c-0.1 0-0.2 0-0.2 0.1s-0.2 0.1-0.2 0.2c-0.1 0.1-0.2 0.3-0.3 0.5s-0.2 0.5-0.4 0.8v4.4H139V3.2h0.9l0.1 1.3c0.1-0.3 0.2-0.5 0.3-0.7s0.2-0.3 0.3-0.4 0.2-0.2 0.4-0.2c0.1-0.1 0.3-0.1 0.4-0.1 0.4 0 0.6 0.1 0.8 0.4s0.3 0.6 0.3 1.1c0.1-0.2 0.2-0.4 0.3-0.6s0.2-0.3 0.3-0.5c0.1-0.1 0.3-0.2 0.4-0.3s0.3-0.1 0.5-0.1c0.9 0 1.3 0.7 1.3 2v5H144.3zM151.5 10.1V9.2c-0.4 0.4-0.8 0.6-1.1 0.8 -0.4 0.2-0.8 0.2-1.2 0.2s-0.7-0.1-1-0.1c-0.3-0.1-0.5-0.2-0.7-0.4s-0.3-0.4-0.4-0.6C147 8.9 147 8.6 147 8.3c0-0.7 0.3-1.2 0.8-1.6s1.3-0.6 2.3-0.6h1.4V5.5c0-0.4-0.1-0.7-0.4-1s-0.7-0.4-1.2-0.4c-0.4 0-0.8 0-1.1 0.1 -0.4 0.1-0.8 0.2-1.2 0.4v-1c0.2-0.1 0.3-0.1 0.5-0.2 0.2-0.1 0.4-0.1 0.6-0.1s0.4-0.1 0.6-0.1 0.4 0 0.7 0c0.4 0 0.8 0 1.1 0.1s0.6 0.2 0.8 0.4 0.4 0.4 0.5 0.7 0.2 0.6 0.2 1v4.7H151.5zM151.4 7h-1.5c-0.3 0-0.6 0-0.8 0.1s-0.4 0.1-0.5 0.3 -0.2 0.2-0.3 0.4c-0.1 0.2-0.1 0.3-0.1 0.5 0 0.1 0 0.3 0.1 0.4 0 0.1 0.1 0.2 0.2 0.3 0.1 0.1 0.2 0.2 0.4 0.2s0.3 0.1 0.5 0.1c0.3 0 0.6-0.1 0.9-0.2 0.4-0.2 0.7-0.4 1.1-0.8L151.4 7 151.4 7zM157.2 4.2h-2v-1h3.2v5.9h2v1h-5.5v-1h2.3V4.2zM157.6 0.4c0.1 0 0.3 0 0.4 0.1s0.2 0.1 0.3 0.2 0.2 0.2 0.2 0.3 0.1 0.2 0.1 0.4c0 0.1 0 0.2-0.1 0.4 0 0.1-0.1 0.2-0.2 0.3 -0.1 0.1-0.2 0.2-0.3 0.2s-0.2 0.1-0.4 0.1 -0.3 0-0.4-0.1 -0.2-0.1-0.3-0.2c-0.1-0.1-0.1-0.2-0.2-0.3 0-0.1-0.1-0.2-0.1-0.4 0-0.1 0-0.3 0.1-0.4 0-0.1 0.1-0.2 0.2-0.3 0.1-0.1 0.2-0.2 0.3-0.2S157.5 0.4 157.6 0.4zM164.9 1.4h-2v-1h3.2v8.7h2v1h-5.5v-1h2.3V1.4zM172.9 8c0.2 0 0.3 0 0.4 0.1 0.1 0.1 0.3 0.1 0.4 0.2 0.1 0.1 0.2 0.2 0.2 0.4C174 8.8 174 9 174 9.1c0 0.2 0 0.3-0.1 0.4s-0.1 0.3-0.2 0.4c-0.1 0.1-0.2 0.2-0.4 0.2 -0.1 0.1-0.3 0.1-0.4 0.1 -0.2 0-0.3 0-0.4-0.1 -0.1-0.1-0.3-0.1-0.4-0.2 -0.1-0.1-0.2-0.2-0.2-0.4s-0.1-0.3-0.1-0.4c0-0.2 0-0.3 0.1-0.4 0.1-0.1 0.1-0.3 0.2-0.4 0.1-0.1 0.2-0.2 0.4-0.2C172.6 8 172.8 8 172.9 8zM183.3 9.9c-0.3 0.1-0.6 0.2-1 0.3 -0.3 0.1-0.7 0.1-1 0.1 -1.1 0-1.9-0.3-2.5-0.9 -0.6-0.6-0.9-1.4-0.9-2.6 0-0.5 0.1-1 0.3-1.5s0.4-0.8 0.7-1.1 0.7-0.6 1.1-0.7 0.9-0.3 1.4-0.3c0.4 0 0.7 0 1 0.1s0.6 0.1 0.9 0.2v1.1c-0.3-0.2-0.6-0.3-0.9-0.3 -0.3-0.1-0.6-0.1-1-0.1 -0.3 0-0.6 0.1-0.9 0.2 -0.3 0.1-0.5 0.3-0.7 0.5s-0.4 0.5-0.5 0.8 -0.2 0.7-0.2 1.1c0 0.8 0.2 1.5 0.6 1.9 0.4 0.4 1 0.6 1.7 0.6 0.3 0 0.6 0 0.9-0.1 0.3-0.1 0.6-0.2 0.9-0.3v1H183.3zM191.6 6.6c0 0.5-0.1 1-0.2 1.5s-0.4 0.8-0.6 1.1c-0.3 0.3-0.6 0.6-1 0.7 -0.4 0.2-0.9 0.3-1.4 0.3s-0.9-0.1-1.3-0.2c-0.4-0.2-0.7-0.4-1-0.7s-0.5-0.7-0.6-1.1c-0.1-0.4-0.2-0.9-0.2-1.5 0-0.5 0.1-1 0.2-1.5s0.4-0.8 0.6-1.1 0.6-0.6 1-0.7 0.9-0.3 1.4-0.3 0.9 0.1 1.3 0.2c0.4 0.2 0.7 0.4 1 0.7s0.5 0.7 0.6 1.1C191.5 5.6 191.6 6.1 191.6 6.6zM190.4 6.7c0-0.4 0-0.8-0.1-1.1 -0.1-0.3-0.2-0.6-0.4-0.8s-0.4-0.4-0.6-0.5c-0.2-0.1-0.5-0.2-0.8-0.2 -0.4 0-0.7 0.1-0.9 0.2 -0.3 0.1-0.5 0.3-0.6 0.6 -0.2 0.2-0.3 0.5-0.4 0.8 -0.1 0.3-0.1 0.6-0.1 1s0 0.8 0.1 1.1 0.2 0.6 0.4 0.8 0.4 0.4 0.6 0.5c0.2 0.1 0.5 0.2 0.8 0.2 0.4 0 0.7-0.1 0.9-0.2 0.3-0.1 0.5-0.3 0.6-0.6 0.2-0.2 0.3-0.5 0.4-0.8C190.3 7.3 190.4 7 190.4 6.7zM198.2 10.1V5.2c0-0.2 0-0.4 0-0.5s0-0.2-0.1-0.3c0-0.1-0.1-0.1-0.1-0.2 -0.1 0-0.1 0-0.2 0 -0.1 0-0.2 0-0.3 0.1s-0.2 0.1-0.2 0.3c-0.1 0.1-0.2 0.3-0.3 0.5s-0.2 0.5-0.4 0.7v4.4h-1.1V5.3c0-0.2 0-0.5 0-0.6 0-0.2 0-0.3-0.1-0.4 0-0.1-0.1-0.1-0.1-0.2s-0.1 0-0.2 0c-0.1 0-0.2 0-0.2 0.1s-0.2 0.1-0.2 0.2c-0.1 0.1-0.2 0.3-0.3 0.5s-0.2 0.5-0.4 0.8v4.4h-1.1V3.2h0.9l0.1 1.3c0.1-0.3 0.2-0.5 0.3-0.7s0.2-0.3 0.3-0.4 0.2-0.2 0.4-0.2c0.1-0.1 0.3-0.1 0.4-0.1 0.4 0 0.6 0.1 0.8 0.4s0.3 0.6 0.3 1.1c0.1-0.2 0.2-0.4 0.3-0.6s0.2-0.3 0.3-0.5c0.1-0.1 0.3-0.2 0.4-0.3s0.3-0.1 0.5-0.1c0.9 0 1.3 0.7 1.3 2v5H198.2z"/></svg>