<svg xmlns="http://www.w3.org/2000/svg" version="1.1" x="0" y="0" width="205" height="13" viewBox="0 0 205 13" enable-background="new 0 0 205 13" xml:space="preserve"><g enable-background="new    "><path fill="#000000" d="M4 3.8c0.1-0.3 0.3-0.5 0.5-0.7 0.2-0.1 0.5-0.2 0.8-0.2 0.6 0 1 0.2 1.2 0.7 0.2 0.4 0.4 1.3 0.4 2.5v4.1H5.9V6.1c0-1-0.1-1.6-0.2-1.9S5.4 3.9 5.1 3.9c-0.3 0-0.6 0.1-0.7 0.4C4.3 4.5 4.2 5.2 4.2 6.1v4.1H3.1V6.1c0-1-0.1-1.6-0.2-1.9 -0.1-0.2-0.3-0.4-0.6-0.4 -0.3 0-0.5 0.1-0.6 0.4C1.5 4.5 1.5 5.2 1.5 6.1v4.1H0.4V3.1h1.1v0.6c0.1-0.3 0.3-0.4 0.5-0.6 0.2-0.1 0.4-0.2 0.7-0.2 0.3 0 0.6 0.1 0.8 0.2C3.7 3.3 3.9 3.5 4 3.8zM14.3 6.1v4.1h-1.2V9.1c-0.2 0.4-0.6 0.7-0.9 0.9 -0.4 0.2-0.8 0.3-1.4 0.3 -0.7 0-1.3-0.2-1.7-0.6S8.4 8.8 8.4 8.1c0-0.8 0.3-1.4 0.8-1.8 0.5-0.4 1.3-0.6 2.3-0.6h1.6V5.5c0-0.6-0.1-1-0.4-1.2 -0.3-0.3-0.7-0.4-1.4-0.4 -0.4 0-0.8 0.1-1.2 0.2S9.3 4.4 8.9 4.6V3.4c0.4-0.2 0.8-0.3 1.2-0.4 0.4-0.1 0.8-0.1 1.2-0.1 0.6 0 1.1 0.1 1.5 0.3 0.4 0.2 0.8 0.4 1 0.8 0.2 0.2 0.3 0.5 0.3 0.8C14.2 5.1 14.3 5.5 14.3 6.1zM12 6.6h-0.4c-0.7 0-1.2 0.1-1.5 0.4C9.7 7.2 9.6 7.6 9.6 8c0 0.4 0.1 0.8 0.4 1 0.3 0.2 0.6 0.4 1.1 0.4 0.6 0 1.1-0.2 1.5-0.7s0.6-1.1 0.6-1.8v-0.3H12zM19.3 1.1v2h2.7v0.9h-2.7v3.9c0 0.5 0.1 0.9 0.3 1.1s0.5 0.3 1 0.3h1.3v0.9h-1.4c-0.9 0-1.5-0.2-1.9-0.5 -0.4-0.4-0.5-1-0.5-1.8V4h-1.9V3.1H18.1V1.1H19.3zM27.1 1.1v2h2.7v0.9h-2.7v3.9c0 0.5 0.1 0.9 0.3 1.1s0.5 0.3 1 0.3h1.3v0.9H28.3c-0.9 0-1.5-0.2-1.9-0.5 -0.4-0.4-0.5-1-0.5-1.8V4h-1.9V3.1h1.9V1.1H27.1zM32.7 3.1h3v6.2h2.3v0.9h-5.8V9.3h2.3V4H32.7C32.7 4 32.7 3.1 32.7 3.1zM34.5 0.3h1.2v1.5h-1.2V0.3zM45.6 6.1v4.1h-1.2V9.1c-0.2 0.4-0.6 0.7-0.9 0.9 -0.4 0.2-0.8 0.3-1.4 0.3 -0.7 0-1.3-0.2-1.7-0.6s-0.6-1-0.6-1.6c0-0.8 0.3-1.4 0.8-1.8 0.5-0.4 1.3-0.6 2.3-0.6h1.6V5.5c0-0.6-0.1-1-0.4-1.2 -0.3-0.3-0.7-0.4-1.4-0.4 -0.4 0-0.8 0.1-1.2 0.2s-0.8 0.3-1.2 0.5V3.4c0.4-0.2 0.8-0.3 1.2-0.4 0.4-0.1 0.8-0.1 1.2-0.1 0.6 0 1.1 0.1 1.5 0.3s0.8 0.4 1 0.8c0.2 0.2 0.3 0.5 0.3 0.8C45.5 5.1 45.6 5.5 45.6 6.1zM43.3 6.6H42.9c-0.7 0-1.2 0.1-1.5 0.4 -0.3 0.2-0.5 0.6-0.5 1.1 0 0.4 0.1 0.8 0.4 1 0.3 0.2 0.6 0.4 1.1 0.4 0.6 0 1.1-0.2 1.5-0.7s0.6-1.1 0.6-1.8v-0.3H43.3zM52.9 3.3v1.1c-0.3-0.2-0.7-0.3-1-0.4s-0.7-0.1-1-0.1c-0.5 0-0.9 0.1-1.2 0.3 -0.3 0.2-0.4 0.4-0.4 0.8 0 0.3 0.1 0.6 0.3 0.7 0.2 0.2 0.7 0.3 1.5 0.5l0.5 0.1c0.6 0.1 1 0.3 1.3 0.7s0.4 0.8 0.4 1.3c0 0.7-0.2 1.3-0.7 1.6s-1.2 0.6-2.1 0.6c-0.4 0-0.7 0-1.1-0.1s-0.8-0.2-1.2-0.3V8.7c0.4 0.2 0.9 0.4 1.3 0.5s0.8 0.2 1.1 0.2c0.5 0 0.9-0.1 1.2-0.3 0.3-0.2 0.4-0.5 0.4-0.9 0-0.5-0.5-0.9-1.6-1.1L50.4 7.1l-0.4-0.1c-0.7-0.1-1.2-0.4-1.5-0.7 -0.3-0.3-0.5-0.7-0.5-1.3 0-0.7 0.2-1.2 0.7-1.6 0.5-0.4 1.1-0.6 2-0.6 0.4 0 0.7 0 1.1 0.1C52.2 3.1 52.5 3.2 52.9 3.3zM57.6 8.3h1.6v1.9h-1.6V8.3zM66.4 7.6c0 0.5 0.1 0.9 0.3 1.2 0.2 0.3 0.5 0.4 0.9 0.4h1.4v1h-1.5c-0.7 0-1.2-0.2-1.6-0.7s-0.6-1.1-0.6-1.9V1.2h-1.9V0.2h3V7.6zM71.4 7.5V3.1h1.2v4.4c0 0.6 0.1 1.1 0.3 1.4 0.2 0.3 0.6 0.5 1.1 0.5 0.6 0 1-0.2 1.3-0.6 0.3-0.4 0.4-0.9 0.4-1.7V3.1h1.2v7.1h-1.2V9.1c-0.2 0.4-0.5 0.7-0.8 0.9 -0.4 0.2-0.8 0.3-1.3 0.3 -0.7 0-1.3-0.2-1.6-0.7C71.6 9.2 71.4 8.5 71.4 7.5zM84.7 5.8v4.4h-1.2V5.8c0-0.6-0.1-1.1-0.3-1.4 -0.2-0.3-0.6-0.5-1.1-0.5 -0.5 0-1 0.2-1.3 0.6 -0.3 0.4-0.4 0.9-0.4 1.7v4h-1.2V3.1h1.2v1.1c0.2-0.4 0.5-0.7 0.8-0.9 0.4-0.2 0.8-0.3 1.3-0.3 0.7 0 1.3 0.2 1.6 0.7C84.5 4.1 84.7 4.8 84.7 5.8zM91.3 4V0.3h1.2v9.9h-1.2V9.3c-0.2 0.4-0.5 0.6-0.8 0.8 -0.3 0.2-0.7 0.3-1.1 0.3 -0.9 0-1.5-0.3-2-1 -0.5-0.7-0.7-1.6-0.7-2.8 0-1.2 0.2-2.1 0.7-2.7 0.5-0.7 1.2-1 2-1 0.4 0 0.8 0.1 1.1 0.3C90.8 3.4 91.1 3.6 91.3 4zM87.8 6.6c0 0.9 0.1 1.6 0.4 2.1 0.3 0.5 0.7 0.7 1.3 0.7s1-0.2 1.3-0.7c0.3-0.5 0.4-1.1 0.4-2 0-0.9-0.1-1.6-0.4-2 -0.3-0.5-0.7-0.7-1.3-0.7 -0.6 0-1 0.2-1.3 0.7C88 5.1 87.8 5.7 87.8 6.6zM100.7 6.3V6.9h-5.1v0c0 0.8 0.2 1.4 0.6 1.8 0.4 0.4 1 0.6 1.7 0.6 0.4 0 0.8-0.1 1.2-0.2 0.4-0.1 0.8-0.3 1.3-0.5v1.2c-0.4 0.2-0.9 0.3-1.3 0.4 -0.4 0.1-0.8 0.1-1.2 0.1 -1.1 0-2-0.3-2.6-1s-0.9-1.6-0.9-2.7c0-1.1 0.3-2 0.9-2.7s1.4-1 2.4-1c0.9 0 1.6 0.3 2.1 0.9C100.4 4.4 100.7 5.3 100.7 6.3zM99.5 6c0-0.7-0.2-1.2-0.5-1.6 -0.3-0.4-0.7-0.5-1.3-0.5 -0.6 0-1 0.2-1.4 0.6 -0.4 0.4-0.6 0.9-0.6 1.5L99.5 6zM108.8 4.6c-0.2-0.2-0.5-0.3-0.8-0.4 -0.3-0.1-0.5-0.1-0.9-0.1 -0.7 0-1.3 0.2-1.7 0.7 -0.4 0.5-0.6 1.1-0.6 2v3.5h-1.2V3.1h1.2v1.4c0.2-0.5 0.5-0.9 0.9-1.2s0.9-0.4 1.4-0.4c0.3 0 0.6 0 0.8 0.1 0.2 0.1 0.5 0.2 0.7 0.3C108.8 3.4 108.8 4.6 108.8 4.6zM113.2 2.9c1 0 1.7 0.3 2.3 1s0.8 1.6 0.8 2.8c0 1.2-0.3 2.1-0.8 2.8s-1.3 1-2.3 1c-1 0-1.7-0.3-2.3-1s-0.8-1.6-0.8-2.8c0-1.2 0.3-2.1 0.8-2.8C111.5 3.2 112.2 2.9 113.2 2.9zM113.2 3.9c-0.6 0-1 0.2-1.3 0.7 -0.3 0.5-0.5 1.1-0.5 2.1 0 0.9 0.2 1.6 0.5 2 0.3 0.5 0.8 0.7 1.3 0.7 0.6 0 1-0.2 1.4-0.7 0.3-0.5 0.5-1.1 0.5-2 0-0.9-0.2-1.6-0.5-2C114.2 4.1 113.8 3.9 113.2 3.9zM121 1.1v2h2.7v0.9h-2.7v3.9c0 0.5 0.1 0.9 0.3 1.1 0.2 0.2 0.5 0.3 1 0.3h1.3v0.9h-1.4c-0.9 0-1.5-0.2-1.9-0.5 -0.4-0.4-0.5-1-0.5-1.8V4h-1.9V3.1h1.9V1.1H121zM132.4 9.3h-0.9V8.6c-0.2 0.3-0.4 0.5-0.6 0.6s-0.6 0.2-0.9 0.2c-0.7 0-1.2-0.3-1.7-0.8s-0.7-1.2-0.7-2c0-0.8 0.2-1.4 0.7-2s1-0.8 1.7-0.8c0.3 0 0.6 0.1 0.9 0.2 0.3 0.1 0.5 0.4 0.7 0.6v-0.4c0-0.7-0.2-1.2-0.6-1.6 -0.4-0.4-0.9-0.6-1.5-0.6 -1 0-1.9 0.4-2.5 1.2 -0.6 0.8-0.9 1.9-0.9 3.3 0 1.4 0.4 2.5 1 3.3 0.7 0.8 1.6 1.2 2.8 1.2 0.2 0 0.5 0 0.7-0.1s0.5-0.1 0.7-0.2l0.3 0.9c-0.3 0.1-0.5 0.2-0.8 0.2 -0.3 0.1-0.5 0.1-0.8 0.1 -1.5 0-2.7-0.5-3.6-1.5 -0.9-1-1.3-2.3-1.3-4 0-1.6 0.4-3 1.2-3.9 0.8-1 1.9-1.5 3.2-1.5 0.9 0 1.6 0.3 2.1 0.8 0.5 0.6 0.8 1.3 0.8 2.3v4.9H132.4zM131.5 6.7c0-0.5-0.1-1-0.4-1.3 -0.3-0.3-0.6-0.5-1.1-0.5 -0.5 0-0.8 0.2-1.1 0.5 -0.3 0.3-0.4 0.8-0.4 1.3 0 0.5 0.1 1 0.4 1.3 0.3 0.3 0.6 0.5 1.1 0.5 0.5 0 0.8-0.2 1.1-0.5C131.4 7.7 131.5 7.3 131.5 6.7zM139.4 9.7c0 1.1-0.3 1.9-0.8 2.4 -0.5 0.6-1.2 0.8-2.2 0.8 -0.3 0-0.7 0-1-0.1 -0.4-0.1-0.7-0.1-1.1-0.3v-1.2c0.4 0.2 0.8 0.3 1.1 0.4 0.3 0.1 0.6 0.1 0.9 0.1 0.6 0 1.1-0.2 1.4-0.5 0.3-0.3 0.4-0.9 0.4-1.6V9.9 9.1c-0.2 0.4-0.4 0.7-0.8 0.9 -0.3 0.2-0.7 0.3-1.2 0.3 -0.8 0-1.5-0.3-2-1 -0.5-0.7-0.7-1.6-0.7-2.7 0-1.1 0.2-2 0.7-2.7 0.5-0.7 1.2-1 2-1 0.5 0 0.8 0.1 1.2 0.3 0.3 0.2 0.6 0.5 0.8 0.8v-0.9h1.2L139.4 9.7 139.4 9.7zM138.2 6.6c0-0.9-0.1-1.5-0.4-2 -0.3-0.5-0.7-0.7-1.2-0.7 -0.6 0-1 0.2-1.3 0.7 -0.3 0.5-0.5 1.1-0.5 2 0 0.9 0.2 1.5 0.5 2s0.7 0.7 1.3 0.7c0.5 0 0.9-0.2 1.2-0.7C138.1 8.1 138.2 7.5 138.2 6.6zM144.9 3.8c0.1-0.3 0.3-0.5 0.5-0.7 0.2-0.1 0.5-0.2 0.8-0.2 0.6 0 1 0.2 1.2 0.7 0.2 0.4 0.4 1.3 0.4 2.5v4.1h-1.1V6.1c0-1-0.1-1.6-0.2-1.9 -0.1-0.2-0.3-0.4-0.6-0.4 -0.3 0-0.6 0.1-0.7 0.4 -0.1 0.3-0.2 0.9-0.2 1.8v4.1h-1.1V6.1c0-1-0.1-1.6-0.2-1.9 -0.1-0.2-0.3-0.4-0.6-0.4 -0.3 0-0.5 0.1-0.6 0.4 -0.1 0.3-0.2 0.9-0.2 1.8v4.1h-1.1V3.1h1.1v0.6c0.1-0.3 0.3-0.4 0.5-0.6 0.2-0.1 0.4-0.2 0.7-0.2 0.3 0 0.6 0.1 0.8 0.2S144.8 3.5 144.9 3.8zM155.1 6.1v4.1h-1.2V9.1c-0.2 0.4-0.6 0.7-0.9 0.9 -0.4 0.2-0.8 0.3-1.4 0.3 -0.7 0-1.3-0.2-1.7-0.6s-0.6-1-0.6-1.6c0-0.8 0.3-1.4 0.8-1.8s1.3-0.6 2.3-0.6h1.6V5.5c0-0.6-0.1-1-0.4-1.2 -0.3-0.3-0.7-0.4-1.4-0.4 -0.4 0-0.8 0.1-1.2 0.2s-0.8 0.3-1.2 0.5V3.4c0.4-0.2 0.8-0.3 1.2-0.4 0.4-0.1 0.8-0.1 1.2-0.1 0.6 0 1.1 0.1 1.5 0.3 0.4 0.2 0.8 0.4 1 0.8 0.2 0.2 0.3 0.5 0.3 0.8C155.1 5.1 155.1 5.5 155.1 6.1zM152.9 6.6h-0.4c-0.7 0-1.2 0.1-1.5 0.4s-0.5 0.6-0.5 1.1c0 0.4 0.1 0.8 0.4 1 0.3 0.2 0.6 0.4 1.1 0.4 0.6 0 1.1-0.2 1.5-0.7s0.6-1.1 0.6-1.8v-0.3H152.9zM157.9 3.1h3v6.2h2.3v0.9h-5.8V9.3h2.3V4h-1.8V3.1H157.9zM159.7 0.3h1.2v1.5h-1.2V0.3zM168.1 7.6c0 0.5 0.1 0.9 0.3 1.2 0.2 0.3 0.5 0.4 0.9 0.4h1.4v1h-1.5c-0.7 0-1.2-0.2-1.6-0.7 -0.4-0.4-0.6-1.1-0.6-1.9V1.2h-1.9V0.2h3v7.4H168.1zM175 8.3h1.6v1.9h-1.6V8.3zM186.5 9.8c-0.3 0.2-0.6 0.3-1 0.4s-0.7 0.1-1 0.1c-1.1 0-2-0.3-2.6-1 -0.6-0.7-0.9-1.6-0.9-2.7s0.3-2.1 0.9-2.7c0.6-0.7 1.5-1 2.6-1 0.3 0 0.7 0 1 0.1 0.3 0.1 0.7 0.2 1 0.4v1.2c-0.3-0.3-0.6-0.5-0.9-0.6 -0.3-0.1-0.7-0.2-1.1-0.2 -0.7 0-1.3 0.2-1.7 0.7 -0.4 0.5-0.6 1.2-0.6 2 0 0.9 0.2 1.6 0.6 2 0.4 0.5 1 0.7 1.7 0.7 0.4 0 0.8-0.1 1.1-0.2 0.3-0.1 0.6-0.3 0.9-0.6V9.8zM191.5 2.9c1 0 1.7 0.3 2.3 1s0.8 1.6 0.8 2.8c0 1.2-0.3 2.1-0.8 2.8s-1.3 1-2.3 1c-1 0-1.7-0.3-2.3-1s-0.8-1.6-0.8-2.8c0-1.2 0.3-2.1 0.8-2.8C189.7 3.2 190.5 2.9 191.5 2.9zM191.5 3.9c-0.6 0-1 0.2-1.3 0.7 -0.3 0.5-0.5 1.1-0.5 2.1 0 0.9 0.2 1.6 0.5 2 0.3 0.5 0.8 0.7 1.3 0.7 0.6 0 1-0.2 1.4-0.7 0.3-0.5 0.5-1.1 0.5-2 0-0.9-0.2-1.6-0.5-2C192.5 4.1 192.1 3.9 191.5 3.9zM199.7 3.8c0.1-0.3 0.3-0.5 0.5-0.7 0.2-0.1 0.5-0.2 0.8-0.2 0.6 0 1 0.2 1.2 0.7 0.2 0.4 0.4 1.3 0.4 2.5v4.1h-1.1V6.1c0-1-0.1-1.6-0.2-1.9s-0.3-0.4-0.6-0.4c-0.3 0-0.6 0.1-0.7 0.4 -0.1 0.3-0.2 0.9-0.2 1.8v4.1h-1.1V6.1c0-1-0.1-1.6-0.2-1.9 -0.1-0.2-0.3-0.4-0.6-0.4 -0.3 0-0.5 0.1-0.6 0.4 -0.1 0.3-0.2 0.9-0.2 1.8v4.1h-1.1V3.1h1.1v0.6c0.1-0.3 0.3-0.4 0.5-0.6 0.2-0.1 0.4-0.2 0.7-0.2 0.3 0 0.6 0.1 0.8 0.2C199.4 3.3 199.6 3.5 199.7 3.8z"/></g></svg>