<svg xmlns="http://www.w3.org/2000/svg" version="1.1" x="0" y="0" width="133" height="13" viewBox="0 0 133 13" enable-background="new 0 0 133 13" xml:space="preserve"><path fill="#000000" d="M4.4 2.6v3.3h3.2v0.8H4.4v3.3H3.5V6.8H0.4V5.9h3.2V2.6H4.4zM12.6 10.1V7.6h-4.2V6.8l4.1-5.8h1.3v5.7h1.3V7.6h-1.3v2.5H12.6zM12.6 6.6v-3c0-0.5 0-1 0-1.4h0C12.3 2.7 12.1 3.1 11.8 3.5L9.6 6.6v0h3V6.6zM21.2 1.8c-0.3 0-0.6 0-0.9 0.1 -1.9 0.3-3 1.7-3.2 3.2h0c0.4-0.6 1.2-1 2.2-1 1.6 0 2.7 1.2 2.7 2.9 0 1.7-1.1 3.2-3 3.2 -1.9 0-3.2-1.5-3.2-3.9 0-1.8 0.6-3.2 1.5-4.1 0.8-0.7 1.8-1.2 2.9-1.3 0.4-0.1 0.7-0.1 0.9-0.1L21.2 1.8 21.2 1.8zM20.8 7.1c0-1.3-0.7-2.1-1.9-2.1 -0.7 0-1.4 0.5-1.8 1.1 -0.1 0.1-0.1 0.3-0.1 0.5 0 1.5 0.7 2.6 2 2.6C20.1 9.3 20.8 8.4 20.8 7.1zM29.2 0.3c-1 1.4-1.8 3.2-1.8 5.7 0 2.5 0.8 4.3 1.8 5.7h-1c-0.9-1.2-1.8-3-1.8-5.7 0-2.8 1-4.6 1.8-5.7C28.2 0.3 29.2 0.3 29.2 0.3zM36 1v0.8l-4 8.3h-1.3l4-8.1V2h-4.5V1H36zM37.3 10.1V9.3l1-0.9c2.3-2.2 3.4-3.4 3.4-4.8 0-0.9-0.4-1.8-1.8-1.8 -0.8 0-1.5 0.4-1.9 0.8L37.5 1.7c0.6-0.5 1.5-0.9 2.6-0.9 2 0 2.8 1.3 2.8 2.6 0 1.7-1.2 3-3.1 4.9l-0.7 0.7v0h4.1v1C43.1 10.1 37.3 10.1 37.3 10.1zM50.5 5.4c0 3.1-1.1 4.8-3.2 4.8 -1.8 0-3-1.7-3-4.7 0-3.1 1.3-4.7 3.2-4.7C49.4 0.8 50.5 2.5 50.5 5.4zM45.6 5.6c0 2.4 0.7 3.7 1.8 3.7 1.3 0 1.9-1.5 1.9-3.8 0-2.2-0.6-3.7-1.8-3.7C46.3 1.8 45.6 3.1 45.6 5.6zM51.3 11.8c1-1.4 1.8-3.2 1.8-5.7 0-2.5-0.8-4.3-1.8-5.7h1c0.9 1.1 1.8 2.9 1.8 5.7 0 2.7-0.9 4.5-1.8 5.7L51.3 11.8 51.3 11.8zM64 2h-3.5l-0.3 2.3c0.2 0 0.4-0.1 0.7-0.1 0.7 0 1.4 0.2 2 0.5 0.7 0.4 1.3 1.2 1.3 2.3 0 1.8-1.4 3.1-3.4 3.1 -1 0-1.8-0.3-2.3-0.6l0.3-0.9c0.4 0.2 1.1 0.5 1.9 0.5 1.2 0 2.2-0.8 2.2-2 0-1.2-0.8-2-2.6-2 -0.5 0-0.9 0.1-1.3 0.1l0.6-4.4h4.4L64 2 64 2zM65.8 10.1V9.3l1-0.9c2.3-2.2 3.4-3.4 3.4-4.8 0-0.9-0.4-1.8-1.8-1.8 -0.8 0-1.5 0.4-1.9 0.8l-0.4-0.9c0.6-0.5 1.5-0.9 2.6-0.9 2 0 2.8 1.3 2.8 2.6 0 1.7-1.2 3-3.1 4.9l-0.7 0.7v0h4.1v1C71.6 10.1 65.8 10.1 65.8 10.1zM76.8 10.1V7.6h-4.2V6.8l4.1-5.8h1.3v5.7h1.3V7.6H77.9v2.5H76.8zM76.8 6.6v-3c0-0.5 0-1 0-1.4h0C76.5 2.7 76.3 3.1 76 3.5l-2.2 3.1v0L76.8 6.6 76.8 6.6zM86.9 10.1V7.6h-4.2V6.8l4.1-5.8h1.3v5.7h1.3V7.6H88.1v2.5H86.9zM86.9 6.6v-3c0-0.5 0-1 0-1.4h0C86.6 2.7 86.4 3.1 86.2 3.5l-2.2 3.1v0L86.9 6.6 86.9 6.6zM96.2 1v0.8l-4 8.3h-1.3L94.9 2V2h-4.5V1H96.2zM103.4 1v0.8l-4 8.3h-1.3l3.9-8.1V2h-4.5V1H103.4z"/></svg>