<svg xmlns="http://www.w3.org/2000/svg" version="1.1" x="0" y="0" width="133" height="13" viewBox="0 0 133 13" enable-background="new 0 0 133 13" xml:space="preserve"><path fill="#000000" d="M4.4 2.8v2.8h2.8v1.1H4.4v2.8H3.4V6.7H0.6V5.6h2.8V2.8H4.4zM12.3 0.7h1.5v6.2h1.3v1h-1.3v2.3h-1.3v-2.3H8.5V6.7L12.3 0.7zM12.5 1.9l-3 5h3V1.9zM21.9 0.9v1.2c-0.3-0.2-0.5-0.3-0.9-0.4 -0.3-0.1-0.6-0.1-0.9-0.1 -0.8 0-1.4 0.3-1.8 0.9 -0.4 0.6-0.6 1.5-0.6 2.7 0.2-0.4 0.5-0.7 0.8-1 0.4-0.2 0.8-0.3 1.2-0.3 0.9 0 1.6 0.3 2.1 0.8 0.5 0.6 0.8 1.4 0.8 2.4 0 1-0.3 1.8-0.8 2.4 -0.5 0.6-1.2 0.8-2.2 0.8 -1.1 0-1.9-0.4-2.4-1.2s-0.8-2-0.8-3.7c0-1.6 0.3-2.8 0.9-3.7 0.6-0.8 1.5-1.3 2.7-1.3 0.3 0 0.6 0 0.9 0.1C21.3 0.7 21.7 0.8 21.9 0.9zM19.7 4.9c-0.5 0-1 0.2-1.3 0.6S17.9 6.5 17.9 7.2c0 0.7 0.2 1.2 0.5 1.6s0.7 0.6 1.3 0.6c0.6 0 1-0.2 1.3-0.6 0.3-0.4 0.4-0.9 0.4-1.7 0-0.7-0.1-1.3-0.4-1.7S20.2 4.9 19.7 4.9zM36.9 0.3c-0.6 1-1 1.9-1.3 2.9 -0.3 1-0.4 1.9-0.4 2.9 0 1 0.1 1.9 0.4 2.9 0.3 1 0.7 1.9 1.3 2.9h-1c-0.6-1-1.1-2-1.4-2.9s-0.5-1.9-0.5-2.9c0-0.9 0.2-1.9 0.5-2.8s0.8-1.9 1.4-2.9H36.9zM40 0.7h6v0.5l-3.4 8.9h-1.3l3.3-8.4h-4.5V0.7zM49.3 9.1h4.4v1.1h-5.8V9.1C48.7 8.3 49.4 7.6 50 6.9c0.6-0.6 1-1.1 1.2-1.4 0.4-0.5 0.7-0.9 0.9-1.3 0.1-0.3 0.2-0.6 0.2-1 0-0.5-0.2-0.9-0.5-1.2 -0.3-0.3-0.7-0.5-1.3-0.5 -0.4 0-0.8 0.1-1.2 0.2s-0.9 0.4-1.3 0.6V1.2c0.4-0.2 0.9-0.4 1.3-0.5 0.4-0.1 0.8-0.2 1.2-0.2 0.9 0 1.7 0.2 2.2 0.7 0.6 0.5 0.8 1.1 0.8 1.9 0 0.4-0.1 0.8-0.3 1.2 -0.2 0.4-0.5 0.9-0.9 1.3 -0.2 0.3-0.6 0.7-1 1.1C50.9 7.4 50.3 8.2 49.3 9.1zM58.7 0.6c1 0 1.8 0.4 2.3 1.2 0.5 0.8 0.8 2.1 0.8 3.7 0 1.6-0.3 2.8-0.8 3.7 -0.5 0.8-1.3 1.2-2.3 1.2s-1.8-0.4-2.3-1.2c-0.5-0.8-0.8-2.1-0.8-3.7 0-1.6 0.3-2.8 0.8-3.7S57.7 0.6 58.7 0.6zM58.7 1.6c-0.6 0-1 0.3-1.3 1 -0.3 0.6-0.4 1.6-0.4 2.9 0 1.3 0.1 2.3 0.4 2.9 0.3 0.6 0.7 1 1.3 1 0.6 0 1-0.3 1.3-1 0.3-0.6 0.4-1.6 0.4-2.9 0-1.3-0.1-2.3-0.4-2.9C59.7 1.9 59.3 1.6 58.7 1.6zM57.9 5.4c0-0.2 0.1-0.4 0.2-0.6 0.2-0.2 0.4-0.3 0.6-0.3 0.2 0 0.4 0.1 0.6 0.3s0.3 0.4 0.3 0.6c0 0.2-0.1 0.4-0.3 0.6 -0.2 0.2-0.4 0.2-0.6 0.2 -0.2 0-0.4-0.1-0.6-0.2C57.9 5.9 57.9 5.7 57.9 5.4zM64.8 0.3h1c0.6 1 1.1 2 1.4 2.9s0.5 1.9 0.5 2.9c0 1-0.2 1.9-0.5 2.9 -0.3 1-0.8 1.9-1.4 2.9h-1c0.6-1 1-2 1.3-2.9 0.3-1 0.4-1.9 0.4-2.9 0-1-0.1-1.9-0.4-2.9C65.8 2.3 65.4 1.3 64.8 0.3zM79.6 0.7h4.8v1.1h-3.6v2.3c0.2-0.1 0.4-0.1 0.5-0.1 0.2 0 0.4 0 0.6 0 1 0 1.8 0.3 2.3 0.9s0.9 1.4 0.9 2.4c0 1-0.3 1.8-0.9 2.4 -0.6 0.6-1.4 0.9-2.5 0.9 -0.5 0-1 0-1.4-0.1 -0.4-0.1-0.8-0.2-1.1-0.3V8.7c0.4 0.2 0.8 0.4 1.2 0.5s0.8 0.2 1.2 0.2c0.7 0 1.3-0.2 1.6-0.6 0.4-0.4 0.6-0.9 0.6-1.6 0-0.7-0.2-1.2-0.6-1.6 -0.4-0.4-0.9-0.6-1.7-0.6 -0.3 0-0.7 0-1 0.1 -0.3 0.1-0.6 0.2-0.9 0.4V0.7zM88.5 9.1h4.4v1.1h-5.8V9.1c0.8-0.8 1.5-1.6 2.1-2.2 0.6-0.6 1-1.1 1.2-1.4 0.4-0.5 0.7-0.9 0.9-1.3 0.1-0.3 0.2-0.6 0.2-1 0-0.5-0.2-0.9-0.5-1.2 -0.3-0.3-0.7-0.5-1.3-0.5 -0.4 0-0.8 0.1-1.2 0.2s-0.9 0.4-1.3 0.6V1.2c0.4-0.2 0.9-0.4 1.3-0.5 0.4-0.1 0.8-0.2 1.2-0.2 0.9 0 1.7 0.2 2.2 0.7 0.6 0.5 0.8 1.1 0.8 1.9 0 0.4-0.1 0.8-0.3 1.2 -0.2 0.4-0.5 0.9-0.9 1.3 -0.2 0.3-0.6 0.7-1 1.1C90.1 7.4 89.4 8.2 88.5 9.1zM98.4 0.7h1.5v6.2h1.3v1h-1.3v2.3h-1.3v-2.3h-4V6.7L98.4 0.7zM98.6 1.9l-3 5h3V1.9zM114 0.7h1.5v6.2h1.3v1h-1.3v2.3h-1.3v-2.3h-4V6.7L114 0.7zM114.2 1.9l-3 5h3V1.9zM118.3 0.7h6v0.5l-3.4 8.9h-1.3l3.3-8.4h-4.5V0.7zM126.1 0.7h6v0.5l-3.4 8.9h-1.3l3.3-8.4h-4.5V0.7z"/></svg>